<svg width="1512" height="410" viewBox="0 0 1512 410" fill="none" xmlns="http://www.w3.org/2000/svg">
<mask id="mask0_2_76" style="mask-type:luminance" maskUnits="userSpaceOnUse" x="0" y="0" width="1512" height="410">
<path d="M0 0H1512V410H0V0Z" fill="white"/>
</mask>
<g mask="url(#mask0_2_76)">
<path d="M1511.96 0H47.5453V340.066H1511.96V0Z" fill="#E8F0FE"/>
<path d="M272.618 246.586C293.34 246.586 310.137 227.548 310.137 204.063C310.137 180.577 293.34 161.54 272.618 161.54C251.896 161.54 235.098 180.577 235.098 204.063C235.098 227.548 251.896 246.586 272.618 246.586Z" fill="white"/>
<path d="M372.684 273.997C419.266 273.997 457.026 231.202 457.026 178.409C457.026 125.617 419.266 82.82 372.684 82.82C326.105 82.82 288.343 125.617 288.343 178.409C288.343 231.202 326.105 273.997 372.684 273.997Z" fill="white"/>
<path d="M474.301 224.647C495.7 224.647 513.046 204.987 513.046 180.735C513.046 156.483 495.7 136.823 474.301 136.823C452.903 136.823 435.556 156.483 435.556 180.735C435.556 204.987 452.903 224.647 474.301 224.647Z" fill="white"/>
<path d="M527.399 212.865C543.056 212.865 555.749 198.48 555.749 180.735C555.749 162.989 543.056 148.604 527.399 148.604C511.741 148.604 499.049 162.989 499.049 180.735C499.049 198.48 511.741 212.865 527.399 212.865Z" fill="white"/>
<path d="M583.951 206.138C604.648 206.138 621.426 187.122 621.426 163.665C621.426 140.208 604.648 121.193 583.951 121.193C563.254 121.193 546.476 140.208 546.476 163.665C546.476 187.122 563.254 206.138 583.951 206.138Z" fill="white"/>
<path d="M624.763 173.924C634.573 173.924 642.526 164.91 642.526 153.792C642.526 142.673 634.573 133.66 624.763 133.66C614.953 133.66 607 142.673 607 153.792C607 164.91 614.953 173.924 624.763 173.924Z" fill="white"/>
<path d="M653.29 198.105C666.534 198.105 677.27 185.938 677.27 170.928C677.27 155.917 666.534 143.751 653.29 143.751C640.047 143.751 629.311 155.917 629.311 170.928C629.311 185.938 640.047 198.105 653.29 198.105Z" fill="white"/>
<path d="M683.294 202.105C693.178 202.105 701.19 193.025 701.19 181.822C701.19 170.62 693.178 161.54 683.294 161.54C673.41 161.54 665.398 170.62 665.398 181.822C665.398 193.025 673.41 202.105 683.294 202.105Z" fill="white"/>
<path d="M728.374 221.618C746.943 221.618 761.995 204.558 761.995 183.513C761.995 162.469 746.943 145.408 728.374 145.408C709.806 145.408 694.752 162.469 694.752 183.513C694.752 204.558 709.806 221.618 728.374 221.618ZM829.09 188.014C849.852 188.014 866.683 168.938 866.683 145.408C866.683 121.877 849.852 102.801 829.09 102.801C808.328 102.801 791.497 121.877 791.497 145.408C791.497 168.938 808.328 188.014 829.09 188.014Z" fill="white"/>
<path d="M871.91 151.332C895.559 151.332 914.73 129.604 914.73 102.801C914.73 75.9989 895.559 54.2706 871.91 54.2706C848.262 54.2706 829.09 75.9989 829.09 102.801C829.09 129.604 848.262 151.332 871.91 151.332Z" fill="white"/>
<path d="M917.565 110.499C919.448 110.499 921.313 110.079 923.052 109.262C924.792 108.446 926.372 107.249 927.704 105.74C929.035 104.231 930.091 102.44 930.812 100.468C931.532 98.4967 931.903 96.3837 931.903 94.2498C931.903 92.1159 931.532 90.0029 930.812 88.0314C930.091 86.0599 929.035 84.2686 927.704 82.7597C926.372 81.2508 924.792 80.0539 923.052 79.2373C921.313 78.4207 919.448 78.0004 917.565 78.0004C913.763 78.0004 910.116 79.7124 907.427 82.7597C904.739 85.8071 903.228 89.9402 903.228 94.2498C903.228 98.5594 904.739 102.692 907.427 105.74C910.116 108.787 913.763 110.499 917.565 110.499Z" fill="white"/>
<path d="M946.226 112.675C957.177 112.675 966.056 102.612 966.056 90.2C966.056 77.7879 957.177 67.7253 946.226 67.7253C935.274 67.7253 926.395 77.7879 926.395 90.2C926.395 102.612 935.274 112.675 946.226 112.675ZM1005.58 134.564C1019.11 134.564 1030.08 122.133 1030.08 106.801C1030.08 91.4685 1019.11 79.038 1005.58 79.038C992.055 79.038 981.087 91.4685 981.087 106.801C981.087 122.133 992.055 134.564 1005.58 134.564Z" fill="white"/>
<path d="M1049.81 143.617C1063.34 143.617 1074.3 131.187 1074.3 115.854C1074.3 100.522 1063.34 88.0914 1049.81 88.0914C1036.28 88.0914 1025.31 100.522 1025.31 115.854C1025.31 131.187 1036.28 143.617 1049.81 143.617Z" fill="white"/>
<path d="M1106.3 169.824C1130.78 169.824 1150.63 147.332 1150.63 119.586C1150.63 91.84 1130.78 69.3486 1106.3 69.3486C1081.82 69.3486 1061.97 91.84 1061.97 119.586C1061.97 147.332 1081.82 169.824 1106.3 169.824Z" fill="white"/>
<path d="M1144.48 164.971C1152.34 164.971 1158.7 157.756 1158.7 148.855C1158.7 139.954 1152.34 132.74 1144.48 132.74C1140.71 132.74 1137.1 134.437 1134.43 137.46C1131.76 140.482 1130.26 144.581 1130.26 148.855C1130.26 153.129 1131.76 157.228 1134.43 160.25C1137.1 163.273 1140.71 164.971 1144.48 164.971Z" fill="white"/>
<path d="M1164.83 187.127C1174.42 187.127 1182.2 178.317 1182.2 167.447C1182.2 156.578 1174.42 147.767 1164.83 147.767C1155.24 147.767 1147.47 156.578 1147.47 167.447C1147.47 178.317 1155.24 187.127 1164.83 187.127Z" fill="white"/>
<path d="M270.595 160.452C276.905 160.447 283.138 162.027 288.845 165.08C294.551 168.133 299.589 172.582 303.596 178.107M474.169 135.702C482.163 135.73 489.964 138.493 496.55 143.629C503.136 148.764 508.201 156.034 511.083 164.485M448.624 134.748C451.31 140.825 453.418 147.209 454.914 153.792M611.563 133.643C614.078 136.703 616.214 140.138 617.912 143.851M545.87 160.653C546.025 156.665 546.677 152.721 547.805 148.939M640.961 143.584C642.439 146.743 643.21 150.266 643.205 153.842M676.133 159.883C676.983 162.398 677.525 165.033 677.742 167.715M695.904 170.694C697.002 167.186 698.491 163.851 700.334 160.77M827.628 101.931C832.816 101.868 837.977 102.79 842.896 104.659M906.152 83.1045C907.575 81.2249 909.333 79.7075 911.31 78.652C913.288 77.5964 915.439 77.0265 917.625 76.9796M925.805 90.133C925.758 86.4565 926.478 82.8193 927.907 79.5184C929.337 76.2175 931.434 73.3463 934.029 71.1392M1022.71 85.6816C1025.26 88.3639 1027.29 91.614 1028.68 95.2282C1030.07 98.8423 1030.78 102.742 1030.77 106.684M1061.09 119.586C1061.21 106.707 1065.52 94.3316 1073.2 84.8281M1151.35 119.586C1151.36 126.555 1150.11 133.452 1147.67 139.852M1159.41 148.504C1159.45 151.399 1158.88 154.264 1157.77 156.871" stroke="#E8F0FE" stroke-linecap="round" stroke-linejoin="round"/>
<path d="M355.527 163.665L461.736 196.599L473.297 183.513L468.351 163.665L510.167 184.634L425.944 217.802L498.059 272.19H534.368L529.746 251.489L511.186 240.762L503.345 227.542L562.762 256.225L559.691 243.005L552.722 241.264L543.405 227.793L598.421 261.965L634.302 272.19L480.872 325.189L462.371 270.834L380.067 246.586L360.429 252.443L394.789 190.826L382.326 198.105L375.918 180.735H368.358L355.527 163.665ZM956.074 79.038L1087.31 135.601L1290.46 194.089L1271.88 230.571L1192.15 202.105L1069.77 185.387L1079.49 145.408L991.763 129.727L998.703 106.801L973.749 104.408L956.074 79.038Z" fill="#AECBFA"/>
<path d="M274.36 212.882L355.527 163.665L368.358 180.735H375.918L382.326 198.105L394.789 190.826L360.429 252.443L380.067 246.586L462.371 270.834L480.872 325.189L360.06 357.704L274.36 212.882ZM468.351 163.665L432.633 187.579L461.736 196.599L473.297 183.513L468.351 163.665ZM425.944 217.802L510.167 184.634L604.711 147.6L655.387 189.621L634.302 195.829L744.881 232.177L587.391 255.12L543.405 227.793L552.722 241.264L559.691 243.004L562.762 256.225L503.345 227.542L511.186 240.762L529.746 251.489L534.368 272.19H498.059L425.944 217.802Z" fill="#E8F0FE"/>
<path d="M604.711 147.6L655.387 189.621L634.302 195.829L759.898 238.921L695.771 202.105L716.074 192.499L637.476 161.54L604.711 147.6Z" fill="#AECBFA"/>
<path d="M695.771 202.105L956.074 79.038L973.749 104.408L998.703 106.801L991.763 129.727L1079.49 145.408L1069.77 185.387L1192.15 202.105L1271.88 230.571L1261.13 280.072L1108.25 257.279H817.056L925.627 204.247L759.898 238.921L695.771 202.105Z" fill="#E8F0FE"/>
<path d="M1446.29 0.0116488L1423.41 101.68L1401.26 54.2705L1370.84 179.546L1340.41 119.586L1321.83 167.447L1300.85 12.7183L1275.56 215.208L1243.56 96.1742L1216.69 221.684L1187.82 167.665L1162.72 250.384C1137.62 245.364 1112.52 252.342 1082.59 252.342C1052.26 252.342 1021.23 240.729 1002.75 242.502C984.262 244.276 958.821 254.217 917.418 249.414C876.015 244.611 822.918 252.342 822.918 252.342L921.7 206.289C846.528 217.551 773.719 221.751 773.719 221.751C736.805 221.751 694.619 237.097 694.619 237.097C615.52 241.833 587.273 255.204 587.273 255.204L598.303 262.049L613.807 266.466L578.99 276.34L543.67 281.528C528.772 284.373 504.881 297.225 488.757 306.814C486.941 302.915 485.228 302.362 485.228 302.362C484.202 303.838 483.476 305.552 483.102 307.383C482.427 303.929 481.13 300.67 479.292 297.811C476.664 300.603 474.82 304.212 473.991 308.186C473.797 305.75 473.065 303.408 471.865 301.375C469.277 303.397 467.126 306.058 465.575 309.157C465.28 305.122 463.792 301.319 461.352 298.363C457.173 301.71 457.159 305.659 457.188 306.379C457.14 303.085 456.208 299.886 454.515 297.208C448.609 301.509 446.173 314.11 446.173 314.11C446.326 311.295 445.707 308.495 444.401 306.094C438.495 307.533 436.915 311.483 436.915 311.483C433.74 299.149 427.11 296.12 427.11 296.12C424.275 307.466 427.967 314.863 427.967 314.863C424.445 314.781 420.959 315.672 417.808 317.457C419.562 314.509 420.332 310.949 419.979 307.416C417.472 308.047 415.277 309.75 413.851 312.169C414.744 308.632 414.551 304.856 413.305 301.459C410.713 302.643 408.492 304.676 406.926 307.299C408.402 300.254 406.025 291.15 406.025 291.15C401.005 294.982 399.395 304.203 399.395 304.203C399.105 303.082 398.478 302.112 397.624 301.459C396.86 302.27 396.274 303.271 395.913 304.384C395.551 305.497 395.424 306.69 395.542 307.868C378.31 291.669 368.122 287.134 363.559 285.862C365.38 282.94 366.536 279.555 366.926 276.005C364.043 275.815 361.201 276.847 358.952 278.9C360.6 274.054 360.6 268.686 358.952 263.839C354.907 264.76 350.979 272.876 350.979 272.876C351.373 266.807 349.845 260.778 346.667 255.873C336.243 264.341 331.902 274.014 330.263 279.553L244.002 101.68L203.766 190.457L180.982 66.3865L166.748 178.107L117.608 -6.54988e-05H109.782L96.9659 46.4052L81.3999 -0.0117798H0V410H1512V0.0116488H1446.29ZM1145.9 306.027C1108.74 295.786 1041.35 309.374 1041.35 309.374C1000.27 305.274 968.994 317.022 968.994 317.022C958.323 307.736 945.495 302.177 932.08 301.024C1021.26 262.417 1124.33 266.366 1157.18 268.876L1145.9 306.027Z" fill="white"/>
<path d="M503.345 227.542L480.872 251.389L505.737 231.575L503.345 227.542ZM543.405 227.793L531.592 241.18L533.999 242.335L546.801 232.696L543.405 227.793ZM634.302 195.829L604.711 227.793L634.302 211.058L631.629 202.105L638.953 197.436L634.302 195.829ZM491.961 307.918L494.456 291.903L497.38 307.918L500.186 282.03L503.98 302.028L507.229 281.528L511.23 299.216M522.718 290.849L523.899 282.264L525.523 290.849H522.718ZM533.438 285.544L534.944 276.34L538.517 286.716L540.259 277.043L543.729 285.544M567.399 278.616L567.915 274.114C567.945 273.97 568.016 273.842 568.118 273.749C568.22 273.659 568.347 273.61 568.477 273.61C568.607 273.61 568.733 273.659 568.835 273.749C568.937 273.842 569.008 273.97 569.038 274.114L569.82 278.649L574.383 277.796L575.18 271.571L576.391 278.616L582.371 276.942L583.346 267.036L584.232 276.34L585.442 275.604L585.752 271.018C585.767 270.944 585.804 270.878 585.856 270.831C585.908 270.784 585.973 270.758 586.04 270.757C586.107 270.758 586.172 270.784 586.224 270.831C586.277 270.878 586.313 270.944 586.328 271.018L587.066 276.039L589.252 274.75L589.562 270.449L590.699 274.75M1146.99 308.002C1146.99 308.002 1146.71 298.764 1139.61 286.598C1139.61 286.598 1136.66 291.468 1136.66 300.873C1134.51 297.641 1131.71 295.028 1128.51 293.242C1128.51 293.242 1126.22 296.321 1130.94 309.458L1146.99 308.002ZM1115.1 308.805C1115.24 305.194 1115.01 301.576 1114.39 298.028C1113 298.515 1111.72 299.333 1110.63 300.426C1109.55 301.521 1108.68 302.865 1108.09 304.371C1109.3 300.237 1109.3 295.769 1108.09 291.636C1108.09 291.636 1100.51 297.309 1099.08 305.893C1098.14 302.931 1096.62 300.244 1094.65 298.028C1092.02 302.904 1091.05 308.701 1091.93 314.328C1093.51 323.398 1115.1 308.805 1115.1 308.805ZM1070.77 317.29C1071.42 313.808 1071.56 310.231 1071.2 306.697C1069.58 307.371 1068.11 308.432 1066.89 309.809C1067.08 305.918 1066.65 302.019 1065.64 298.296C1062.45 299.12 1059.68 301.333 1057.93 304.454C1057.93 304.454 1058.77 302.781 1056.32 296.673C1054.62 298.177 1053.27 300.127 1052.38 302.354C1051.5 304.582 1051.11 307.02 1051.24 309.458L1070.77 317.29ZM1044.43 309.809C1044.43 309.809 1045.63 301.961 1042.63 295.669C1040.7 296.991 1039.22 299.022 1038.45 301.425C1038.45 301.425 1038.69 299.049 1036.67 294.112C1034.22 296.87 1032.75 300.55 1032.53 304.454C1032.53 304.454 1032.84 302.362 1027.61 298.882C1027 300.757 1026.9 302.799 1027.33 304.739C1025.88 303.429 1024.05 302.757 1022.19 302.848C1022.24 306.397 1023.04 309.881 1024.53 313.006L1044.43 309.809Z" fill="white"/>
<path d="M1067.07 322.059C1067.07 322.059 1077.14 311.751 1082.78 291.636" stroke="white" stroke-miterlimit="10"/>
<path d="M1082.78 293.761C1083.28 293.761 1083.75 293.536 1084.1 293.138C1084.46 292.739 1084.65 292.198 1084.65 291.634C1084.65 291.07 1084.46 290.529 1084.1 290.131C1083.75 289.732 1083.27 289.508 1082.78 289.509C1082.53 289.509 1082.29 289.564 1082.06 289.671C1081.83 289.778 1081.62 289.934 1081.45 290.132C1081.1 290.531 1080.9 291.072 1080.9 291.636C1080.9 292.199 1081.1 292.74 1081.45 293.139C1081.8 293.537 1082.28 293.761 1082.78 293.761ZM1008.88 291.267C1009.37 291.267 1009.85 291.043 1010.2 290.644C1010.55 290.245 1010.75 289.704 1010.75 289.14C1010.75 288.577 1010.55 288.036 1010.2 287.637C1009.85 287.239 1009.37 287.015 1008.87 287.015C1008.63 287.015 1008.38 287.07 1008.16 287.177C1007.93 287.284 1007.72 287.441 1007.55 287.638C1007.2 288.037 1007 288.578 1007 289.142C1007 289.706 1007.2 290.247 1007.55 290.645C1007.9 291.044 1008.38 291.268 1008.88 291.267Z" fill="white"/>
<path d="M1079.88 300.304L1086.01 298.028M1076.18 308.504L1073.37 301.961M1012.05 310.412C1011.9 303.186 1010.83 296.023 1008.88 289.142M1011.09 296.924L1014.56 292.389M1011.5 302.362L1006.44 298.279" stroke="white" stroke-miterlimit="10"/>
<path d="M1163.9 250.518L1160.12 236.612L1156.47 254.233L1152.71 240.059L1149.92 254.786L1137.99 255.371L1132.52 230.571L1128.37 256.041L1125.42 239.306L1123.06 256.041L1115.25 254.451L1111.48 234.871L1109.12 246L1107.85 231.14C1107.84 230.979 1107.78 230.828 1107.68 230.715C1107.58 230.603 1107.44 230.535 1107.3 230.525C1107.16 230.517 1107.02 230.565 1106.91 230.662C1106.79 230.759 1106.71 230.899 1106.68 231.056L1103.49 247.356L1102.02 233.382L1096.94 254.468L1087.53 251.405L1084.71 224.429L1081.48 251.204V264.693L1154.16 262.266L1165.18 256.108L1163.9 250.518ZM1027.19 245.816L1024.96 228.027L1021.06 247.038L1008.64 244.946L1005.44 228.947C1005.41 228.8 1005.33 228.668 1005.23 228.574C1005.12 228.48 1004.99 228.428 1004.86 228.427C1004.73 228.427 1004.6 228.478 1004.49 228.572C1004.39 228.668 1004.31 228.8 1004.28 228.947L1001.11 246.167L992.841 244.327L991.645 218.338L988.839 247.021L987.23 228.964C987.23 228.822 987.18 228.686 987.091 228.585C987.003 228.485 986.883 228.429 986.757 228.429C986.632 228.429 986.512 228.485 986.423 228.585C986.334 228.686 986.285 228.822 986.285 228.964L984.395 248.493L977.012 247.506L974.059 230.771L972.774 250.067H962.04L960.194 235.273L957.964 251.522L955.764 242.151C955.725 241.974 955.634 241.817 955.507 241.705C955.38 241.593 955.224 241.532 955.063 241.532C954.902 241.532 954.745 241.593 954.618 241.705C954.491 241.817 954.401 241.974 954.361 242.151L952.383 251.891L947.584 230.136L944.247 251.891H935.742L934.546 233.349L932.789 252.694L929.836 250.702L929.26 238.754C929.242 238.656 929.194 238.567 929.126 238.504C929.057 238.44 928.972 238.405 928.883 238.404C928.795 238.404 928.709 238.439 928.64 238.503C928.571 238.566 928.524 238.655 928.507 238.754L925.938 252.694L923.619 228.931L919.278 251.121L912.516 248.962L910.936 232.077L908.175 244.327L905.768 227.14L903.184 243.071L900.866 231.642L896.613 250.05L890.234 249.313L888.462 238.62C888.428 238.382 888.323 238.165 888.164 238.004C888.005 237.844 887.802 237.75 887.59 237.74C887.378 237.728 887.168 237.799 886.997 237.941C886.825 238.083 886.701 238.287 886.646 238.52L883.693 249.849L864.498 249.113L862.652 237.9L859.315 249.849L857.883 240.678L855.757 249.38H849.909L848.521 241.733L847.414 250.318H843.442L842.128 242.904L840.459 251.271L962.04 261.747L1028.94 259.388L1027.19 245.816Z" fill="white"/>
<path d="M876.118 237.75V251.02M879.249 208.347V221.618M875.439 210.941V224.211M882.955 208.347V221.618M890.973 209.15V215.325M894.265 206.807V212.982M898.488 207.845V214.02M864.099 211.46V224.73M860.954 213.317V226.588M849.673 210.238V223.509M846.484 213.317V226.588M842.482 212.681V225.952M828.603 212.229V225.5M823.922 214.991V228.261M819.61 216.43V229.7M814.693 216.43V229.7M809.983 213.317V226.588M806.941 216.43V229.7M803.191 214.991V228.261M788.351 215.995V229.265M785.989 218.873V232.144M783.065 216.882V230.152M779.344 219.308V232.579M775.712 220.982V234.252M770.662 218.538V231.809M766.764 216.882V230.152M759.647 219.944V233.215M756.62 218.873V232.144M752.752 221.618V234.888M748.396 219.944V233.215M741.161 223.073V236.344M736.938 223.86V237.131M733.925 222.622V235.892M730.47 225.165V238.436M724.077 224.211V237.482M629.931 239.708V252.978M626.254 242.251V255.505M618.399 243.891V257.162M613.851 243.205V256.459M610.44 246.335V259.605M606.158 245.649V258.919M602.585 247.841V261.111" stroke="white" stroke-miterlimit="10" stroke-linecap="round"/>
<path d="M795.099 214.02L792.958 224.73L797.757 225.165L795.099 214.02ZM833.564 210.941L831.319 220.982H836.325L833.564 210.941ZM869.164 205.519L867.229 216.882L871.91 216.43L869.164 205.519ZM714.405 232.579L713.386 224.73L712.264 234.888L714.405 232.579ZM706.343 234.252L703.892 225.952L701.958 237.131L699.093 237.482L697.572 230.152L695.874 238.921H692.36L691.135 227.625L690.116 239.858H687.059L685.022 233.215L684.106 239.858L679.603 240.561L677.919 234.252L677.107 241.013L661.352 242.753L659.92 234.888L658.488 243.322H653.999L652.271 234.888L650.529 244.427L647.163 243.557L645.834 236.344L644.52 244.427H638.953L636.768 237.482L634.922 245.414L632.574 240.21L631.865 245.414L632.781 248.878H677.919L708.484 242.168L706.343 234.252Z" fill="white"/>
<path d="M112.691 280.072V43.1253M112.691 119.586L92.7576 97.011M112.691 169.271L141.72 136.371M112.691 227.542L79.129 189.504M181.765 119.586V258.216M181.765 181.822L194.759 167.113M181.765 227.542L168.83 212.882M244.046 121.193V277.076M258.709 152.654L244.046 169.271M244.046 238.921L213.585 204.398M1189.4 199.996V304.371M1203.24 225.533L1190.42 240.059M1170.04 262.266L1189.4 284.222M1243.96 139.852V273.244M1256.22 171.765L1244.74 184.751M1227.35 225.533L1243.96 244.343M1301.66 67.742V244.343M1310.36 126.514L1301.66 136.371M1286.25 193.721L1301.66 211.192M1340.97 148.855V257.513M1356.02 174.275L1340.97 191.328M1325.92 216.095L1340.97 233.148M1403.44 90.2V227.793M1418.21 132.74L1403.71 149.173M1386.31 164.971L1403.44 184.366" stroke="#E8F0FE" stroke-linecap="round" stroke-linejoin="round"/>
<path d="M396.147 262.383C396.758 262.383 397.344 262.108 397.776 261.619C398.208 261.129 398.45 260.465 398.45 259.773C398.45 259.08 398.208 258.416 397.776 257.927C397.344 257.437 396.758 257.162 396.147 257.162C395.536 257.162 394.95 257.437 394.518 257.927C394.086 258.416 393.844 259.08 393.844 259.773C393.844 260.465 394.086 261.129 394.518 261.619C394.95 262.108 395.536 262.383 396.147 262.383Z" fill="white"/>
<path d="M375.195 291.368C375.195 291.368 381.647 269.914 396.147 259.773M386.298 269.579L384.837 261.697M380.894 278.114H387.406M436.309 313.525C436.309 313.525 437.461 295.602 445.169 285.243" stroke="white" stroke-miterlimit="10"/>
<path d="M397.446 286.649C398.057 286.648 398.643 286.373 399.075 285.883C399.507 285.393 399.75 284.729 399.75 284.036C399.75 283.344 399.507 282.68 399.074 282.19C398.642 281.7 398.056 281.425 397.445 281.426C397.142 281.426 396.843 281.493 396.563 281.625C396.284 281.756 396.03 281.949 395.816 282.191C395.602 282.434 395.432 282.722 395.317 283.039C395.201 283.355 395.141 283.695 395.141 284.038C395.142 284.381 395.201 284.72 395.317 285.037C395.433 285.354 395.603 285.642 395.817 285.884C396.031 286.127 396.285 286.319 396.564 286.45C396.844 286.581 397.144 286.649 397.446 286.649ZM445.154 288.004C445.765 288.004 446.351 287.729 446.783 287.239C447.215 286.749 447.458 286.084 447.458 285.392C447.457 284.699 447.214 284.035 446.782 283.545C446.35 283.056 445.764 282.781 445.153 282.781C444.85 282.781 444.55 282.849 444.271 282.98C443.991 283.112 443.737 283.304 443.523 283.547C443.092 284.037 442.849 284.701 442.849 285.393C442.849 286.086 443.092 286.75 443.525 287.24C443.957 287.729 444.543 288.004 445.154 288.004Z" fill="white"/>
<path d="M397.978 286.063C397.978 286.063 401.92 300.555 400.71 309.157M440.503 294.112L437.107 286.063M438.17 301.86L443.914 300.304M395.054 293.56L399.853 294.648M399.469 290.464L402.319 287.218" stroke="white" stroke-miterlimit="10"/>
<path d="M698.842 42.64L696.805 43.2257C696.606 43.2836 696.421 43.3914 696.263 43.5409C696.106 43.6905 695.98 43.8781 695.895 44.09C695.81 44.3019 695.768 44.5326 695.772 44.7653C695.776 44.998 695.826 45.2268 695.919 45.4347L702.194 59.609L714.169 56.1616L700.688 43.1253C700.436 42.8859 700.137 42.7172 699.816 42.6329C699.496 42.5486 699.162 42.551 698.842 42.64Z" fill="#8AB4F8"/>
<path d="M702.194 59.609L695.919 45.4347C695.826 45.2269 695.775 44.998 695.77 44.765C695.766 44.532 695.808 44.3009 695.893 44.0887C695.978 43.8766 696.104 43.6888 696.262 43.5394C696.42 43.39 696.605 43.2828 696.805 43.2257L697.174 43.1253L704.217 59.0233L702.194 59.609Z" fill="white"/>
<path d="M684.145 63.9382L726.185 52.085C726.626 51.9608 727.083 51.9361 727.532 52.0124C727.981 52.0886 728.412 52.2643 728.801 52.5295C729.19 52.7946 729.529 53.1439 729.798 53.5575C730.068 53.9711 730.263 54.4409 730.373 54.94C730.54 55.693 730.506 56.4852 730.276 57.2164C730.045 57.9476 729.629 58.5851 729.079 59.0484C728.714 59.3551 728.298 59.577 727.857 59.701L685.816 71.5542L684.145 63.9382Z" fill="white"/>
<path d="M684.815 57.6008C684.558 57.6697 684.316 57.7955 684.102 57.971C683.889 58.1465 683.708 58.3682 683.57 58.6233C683.433 58.8786 683.342 59.1624 683.302 59.4579C683.262 59.7535 683.275 60.0552 683.338 60.3453L684.948 67.742L692.05 65.7339L686.838 58.3706C686.6 58.0382 686.283 57.7894 685.925 57.6531C685.567 57.5168 685.182 57.4987 684.815 57.6008Z" fill="white"/>
<path d="M685.848 71.7751L727.945 59.9102C728.698 59.6981 729.365 59.2044 729.84 58.5089C730.314 57.8134 730.567 56.9569 730.559 56.0779L685.258 68.8465L685.848 71.7751Z" fill="#8AB4F8"/>
<path d="M707.022 83.6735L704.985 84.2424C704.683 84.331 704.363 84.2999 704.079 84.1544C703.795 84.0089 703.563 83.7577 703.423 83.4425C703.328 83.2341 703.277 83.0041 703.272 82.7698L702.844 66.9388L714.833 63.5918L708.381 82.2845C708.264 82.6186 708.08 82.9177 707.845 83.1586C707.609 83.3994 707.328 83.5756 707.022 83.6735Z" fill="#8AB4F8"/>
<path d="M702.844 66.9388L703.213 82.7865C703.217 83.0209 703.268 83.2512 703.362 83.4599C703.456 83.6686 703.591 83.8504 703.756 83.9914C703.92 84.1337 704.111 84.2318 704.314 84.2782C704.516 84.3246 704.726 84.3181 704.926 84.2592L705.295 84.1588L704.881 66.3698L702.844 66.9388Z" fill="white"/>
<path d="M1043.56 283.72H1115.04" stroke="#AECBFA" stroke-miterlimit="10"/>
<path d="M1079.97 237.633C1079.3 235.482 1079.19 233.157 1079.66 230.939" stroke="#F4AFB6" stroke-width="1.98" stroke-miterlimit="10" stroke-linecap="round"/>
<path d="M1081.15 235.608C1081.44 237.967 1082.49 240.121 1084.11 241.649C1084.88 242.364 1085.77 242.884 1086.74 243.172C1087.7 243.461 1088.71 243.512 1089.69 243.322L1090.4 248.661C1088.77 248.958 1087.1 248.866 1085.51 248.391C1083.92 247.915 1082.43 247.067 1081.14 245.9C1078.59 243.524 1076.92 240.149 1076.47 236.444C1076.43 236.179 1076.4 235.911 1076.38 235.641" fill="#56A55C"/>
<path d="M1093.85 240.645H1089.04V244.962H1093.85V240.645Z" fill="#F4AFB6"/>
<path d="M1092.35 242.586C1093.02 242.586 1093.69 242.436 1094.31 242.144C1094.93 241.852 1095.49 241.424 1095.97 240.884C1096.45 240.345 1096.82 239.705 1097.08 239C1097.34 238.295 1097.47 237.54 1097.47 236.777C1097.47 236.015 1097.34 235.26 1097.08 234.555C1096.82 233.85 1096.44 233.21 1095.97 232.671C1095.49 232.132 1094.93 231.704 1094.31 231.412C1093.68 231.121 1093.02 230.97 1092.34 230.971C1090.99 230.971 1089.68 231.583 1088.72 232.672C1087.76 233.762 1087.22 235.239 1087.22 236.779C1087.22 238.319 1087.76 239.797 1088.72 240.886C1089.68 241.975 1090.99 242.586 1092.35 242.586Z" fill="#EE675C"/>
<path d="M1091.18 243.49H1093.48C1094.52 243.648 1095.48 244.169 1096.24 244.979C1096.99 245.79 1097.51 246.849 1097.71 248.008L1097.44 261.731H1082.01L1083.63 243.322" fill="#56A55C"/>
<path d="M1083.92 261.731L1079.49 284.557H1085.54L1089.97 268.809L1090.94 284.557H1097.09C1097.09 284.557 1097.26 275.855 1097.48 261.731H1083.92Z" fill="#343659"/>
<path d="M1053.97 181.956H1046.88V193.922H1053.97V181.956ZM1067.89 206.004C1073.63 211.659 1078.39 218.468 1081.94 226.086C1081.94 226.086 1083.22 229.583 1081.45 231.608C1081.45 231.608 1079.35 233.851 1077.88 231.608C1076.4 229.366 1078.13 226.588 1078.13 226.588C1078.13 226.588 1074.26 220.296 1064.84 211.694L1067.89 206.004Z" fill="#F4AFB6"/>
<path d="M1058.92 185.471L1066.11 187.998C1073.9 190.709 1076.19 183.312 1076.19 183.312C1094.46 189.688 1095.68 174.359 1095.68 174.359C1091.84 181.053 1085.57 177.187 1077.65 174.359C1069.74 171.531 1068.96 177.471 1068.96 177.471C1066.29 176.496 1063.79 174.995 1061.57 173.037C1059.23 170.644 1056.91 167.866 1053.85 166.678C1052.28 166.05 1050.59 165.929 1048.97 166.328C1047.35 166.727 1045.85 167.63 1044.65 168.937C1043.74 170.045 1043.08 171.379 1042.7 172.831C1042.33 174.284 1042.26 175.815 1042.5 177.304C1042.68 178.956 1043.16 180.549 1043.9 181.987C1044.64 183.424 1045.63 184.678 1046.81 185.671C1052.15 190.089 1058.92 185.471 1058.92 185.471Z" fill="#EE675C"/>
<path d="M1061.13 241.766C1063.87 256.813 1068.77 271.247 1075.65 284.49H1063.67C1057.97 276.565 1053.54 267.571 1050.57 257.915C1050.57 257.915 1053.05 280.473 1054.27 284.49H1043.44C1036.19 265.333 1034.58 244.033 1038.87 223.76H1060.01V225.584C1059.82 231.009 1060.19 236.441 1061.13 241.766Z" fill="#F9AB00"/>
<path d="M1059.95 228.462H1031.41L1037.21 197.67L1028.57 187.897L1035.06 180.551L1044.24 189.336C1044.24 189.336 1059.27 192.784 1067.86 206.071C1066.11 210.198 1063.73 213.942 1060.84 217.133L1059.95 228.462Z" fill="#4285F4"/>
<path d="M1060.85 189.651L1044.3 189.517C1043.94 189.514 1043.58 189.592 1043.24 189.748C1042.9 189.903 1042.59 190.132 1042.33 190.422C1042.07 190.712 1041.87 191.057 1041.72 191.438C1041.58 191.818 1041.51 192.227 1041.51 192.64L1041.34 219.315C1041.33 219.728 1041.4 220.138 1041.54 220.521C1041.68 220.903 1041.88 221.252 1042.14 221.546C1042.39 221.84 1042.7 222.074 1043.03 222.235C1043.37 222.396 1043.73 222.48 1044.09 222.483L1060.64 222.617C1061.01 222.62 1061.37 222.541 1061.71 222.386C1062.05 222.231 1062.35 222.002 1062.61 221.712C1062.87 221.422 1063.08 221.077 1063.22 220.696C1063.36 220.316 1063.44 219.907 1063.44 219.494L1063.61 192.819C1063.61 192.406 1063.54 191.996 1063.41 191.613C1063.27 191.23 1063.07 190.882 1062.81 190.588C1062.55 190.294 1062.25 190.059 1061.91 189.899C1061.58 189.738 1061.22 189.654 1060.85 189.651Z" fill="#4B4D75"/>
<path d="M1049.51 222.471H1044.11C1043.56 222.47 1043.02 222.284 1042.56 221.936C1042.11 221.588 1041.75 221.094 1041.55 220.516C1041.41 220.133 1041.34 219.722 1041.35 219.308L1041.51 192.633C1041.51 191.797 1041.81 190.998 1042.34 190.411C1042.87 189.824 1043.58 189.498 1044.31 189.504H1046.78C1047.14 189.505 1047.5 189.588 1047.84 189.748C1048.17 189.908 1048.48 190.143 1048.73 190.437C1048.99 190.731 1049.19 191.079 1049.33 191.462C1049.46 191.845 1049.53 192.254 1049.53 192.667L1049.51 222.471Z" fill="#343757"/>
<path d="M1035.07 180.551L1007.43 151.616C1007.26 151.448 1007.04 151.355 1006.82 151.355C1006.59 151.355 1006.37 151.448 1006.2 151.616C1006.04 151.795 1005.93 152.039 1005.92 152.299C1005.9 152.56 1005.97 152.818 1006.11 153.022L1008.96 156.905V157.942C1008.96 159.187 1009.38 160.385 1010.13 161.289L1030.52 185.755L1035.07 180.551Z" fill="#F4AFB6"/>
<path d="M1052.38 284.49C1050.19 273.713 1046.93 253.681 1049.42 239.105L1051.22 239.507C1050.18 245.598 1049.2 259.739 1054.18 284.49H1052.38Z" fill="#F29900"/>
<path d="M1048.18 230.253C1046.9 230.175 1045.7 229.544 1044.82 228.49C1043.94 227.436 1043.45 226.04 1043.45 224.588C1043.45 223.136 1043.94 221.739 1044.82 220.685C1045.7 219.631 1046.9 219 1048.18 218.923H1063.83C1064.51 218.881 1065.19 218.997 1065.83 219.263C1066.47 219.528 1067.05 219.939 1067.55 220.469C1068.04 220.999 1068.43 221.638 1068.7 222.346C1068.97 223.054 1069.11 223.817 1069.11 224.588C1069.11 225.359 1068.97 226.122 1068.7 226.83C1068.43 227.538 1068.04 228.177 1067.55 228.707C1067.05 229.237 1066.47 229.647 1065.83 229.913C1065.19 230.179 1064.51 230.294 1063.83 230.253H1048.18Z" fill="#EA4335"/>
<path d="M1048.18 230.253C1048.84 230.253 1049.49 230.106 1050.09 229.822C1050.7 229.538 1051.25 229.121 1051.71 228.596C1052.17 228.071 1052.54 227.447 1052.79 226.761C1053.04 226.075 1053.17 225.339 1053.17 224.596C1053.17 223.854 1053.04 223.118 1052.79 222.432C1052.54 221.745 1052.17 221.122 1051.71 220.597C1051.25 220.071 1050.7 219.655 1050.09 219.371C1049.49 219.086 1048.84 218.94 1048.18 218.94C1046.86 218.94 1045.59 219.536 1044.65 220.597C1043.72 221.657 1043.19 223.096 1043.19 224.596C1043.19 226.096 1043.72 227.535 1044.65 228.596C1045.59 229.657 1046.86 230.253 1048.18 230.253Z" fill="#C5221F"/>
<path d="M1055.88 189.554H1063.26C1064 189.562 1064.7 189.902 1065.22 190.497C1065.74 191.093 1066.02 191.897 1066.02 192.733L1065.93 201.954C1065.93 202.367 1065.86 202.776 1065.71 203.157C1065.57 203.538 1065.37 203.883 1065.11 204.173C1064.85 204.464 1064.54 204.694 1064.2 204.85C1063.87 205.007 1063.5 205.086 1063.14 205.084H1055.65" fill="#4B4D75"/>
<path d="M1063.54 206.004H1053.2C1052.61 206.004 1052.01 205.871 1051.46 205.612C1050.91 205.353 1050.41 204.974 1049.99 204.495C1049.56 204.016 1049.23 203.448 1049 202.823C1048.77 202.197 1048.65 201.527 1048.65 200.85V193.922" stroke="#343757" stroke-width="1.24" stroke-miterlimit="10"/>
<path d="M1048.18 227.508C1048.52 227.508 1048.85 227.433 1049.17 227.287C1049.48 227.14 1049.76 226.926 1050 226.655C1050.24 226.385 1050.43 226.064 1050.56 225.711C1050.68 225.357 1050.75 224.979 1050.75 224.596C1050.75 224.214 1050.68 223.835 1050.56 223.482C1050.43 223.129 1050.24 222.808 1050 222.537C1049.76 222.267 1049.48 222.052 1049.17 221.906C1048.85 221.76 1048.52 221.684 1048.18 221.684C1047.5 221.684 1046.85 221.991 1046.37 222.537C1045.88 223.083 1045.61 223.824 1045.61 224.596C1045.61 225.369 1045.88 226.109 1046.37 226.655C1046.85 227.201 1047.5 227.508 1048.18 227.508Z" fill="#DA5040"/>
<path d="M1058.65 205.05H1055.15V211.041H1058.65V205.05Z" fill="#343757"/>
<path d="M1095.27 258.568H1089.27C1089.07 258.568 1088.86 258.521 1088.67 258.431C1088.28 258.244 1087.97 257.892 1087.81 257.45C1087.73 257.231 1087.69 256.997 1087.7 256.76V248.008C1087.69 247.325 1087.81 246.649 1088.04 246.018C1088.27 245.386 1088.6 244.812 1089.03 244.328C1089.46 243.845 1089.96 243.461 1090.52 243.2C1091.07 242.938 1091.67 242.803 1092.27 242.804H1095L1096.86 256.76C1096.86 257.239 1096.7 257.699 1096.4 258.039C1096.1 258.377 1095.69 258.567 1095.27 258.568Z" fill="#1967D2"/>
<path d="M1094.86 242.804C1096.07 242.804 1097.24 243.352 1098.1 244.328C1098.96 245.304 1099.45 246.628 1099.45 248.008V256.777C1099.45 257.252 1099.28 257.708 1098.99 258.044C1098.69 258.379 1098.29 258.568 1097.87 258.568H1091.86C1091.44 258.568 1091.04 258.379 1090.74 258.043C1090.45 257.707 1090.28 257.252 1090.28 256.777V248.008C1090.28 246.628 1090.76 245.304 1091.62 244.328C1092.49 243.352 1093.65 242.804 1094.87 242.804H1094.86Z" fill="#4285F4"/>
<path d="M1091.98 250.92V248.008C1092 247.139 1092.32 246.314 1092.87 245.709C1093.43 245.104 1094.16 244.765 1094.93 244.765C1095.7 244.765 1096.43 245.104 1096.99 245.709C1097.54 246.314 1097.86 247.139 1097.88 248.008V250.92" stroke="#265BB6" stroke-miterlimit="10"/>
<path d="M1095.89 244.762C1096.59 244.761 1097.26 244.445 1097.76 243.883C1098.26 243.32 1098.53 242.558 1098.53 241.763C1098.53 240.968 1098.25 240.206 1097.76 239.644C1097.26 239.082 1096.59 238.767 1095.89 238.767C1095.54 238.767 1095.2 238.845 1094.88 238.996C1094.55 239.147 1094.26 239.368 1094.02 239.646C1093.52 240.209 1093.24 240.971 1093.24 241.766C1093.24 242.561 1093.52 243.323 1094.02 243.885C1094.52 244.447 1095.19 244.762 1095.89 244.762Z" fill="#EE675C"/>
<path d="M1127.84 283.251C1128.34 283.251 1128.82 283.027 1129.17 282.628C1129.52 282.229 1129.72 281.688 1129.72 281.124C1129.72 280.561 1129.52 280.02 1129.17 279.621C1128.82 279.223 1128.34 278.999 1127.84 278.999C1127.59 278.999 1127.35 279.054 1127.12 279.161C1126.9 279.268 1126.69 279.425 1126.51 279.622C1126.16 280.021 1125.97 280.562 1125.97 281.126C1125.97 281.69 1126.16 282.231 1126.52 282.629C1126.87 283.028 1127.35 283.252 1127.84 283.251Z" fill="white"/>
<path d="M1115.13 307.918C1115.13 307.918 1115.22 293.66 1127.84 281.143M1119.6 291.636L1125.36 289.711M1117.68 295.97L1114.97 291" stroke="white" stroke-miterlimit="10"/>
</g>
</svg>
